STARTFONT 2.1
FONT -FontForge-Monoton-Book-R-Normal--14-140-72-72-P-95-ISO10646-1
SIZE 14 72 72
FONTBOUNDINGBOX 26 22 -2 -5
COMMENT "Generated by fontforge, http://fontforge.sourceforge.net"
COMMENT "Copyright (c) 2011 by vernon adams. All rights reserved."
STARTPROPERTIES 40
FOUNDRY "FontForge"
FAMILY_NAME "Monoton"
WEIGHT_NAME "Book"
SLANT "R"
SETWIDTH_NAME "Normal"
ADD_STYLE_NAME ""
PIXEL_SIZE 14
POINT_SIZE 140
RESOLUTION_X 72
RESOLUTION_Y 72
SPACING "P"
AVERAGE_WIDTH 95
CHARSET_REGISTRY "ISO10646"
CHARSET_ENCODING "1"
FONTNAME_REGISTRY ""
CHARSET_COLLECTIONS "ISO8859-2 ISO8859-9 ISO8859-4 ISO10646-1"
FONT_NAME "Monoton-Regular"
FACE_NAME "Monoton"
COPYRIGHT "Copyright (c) 2011 by vernon adams. All rights reserved."
FONT_VERSION "1.000"
FONT_ASCENT 11
FONT_DESCENT 3
UNDERLINE_POSITION -1
UNDERLINE_THICKNESS 1
X_HEIGHT 9
CAP_HEIGHT 10
DEFAULT_CHAR 1
RAW_ASCENT 799
RAW_DESCENT 200
NORM_SPACE 2
RELATIVE_WEIGHT 40
RELATIVE_SETWIDTH 50
SUPERSCRIPT_X 0
SUPERSCRIPT_Y 4
SUPERSCRIPT_SIZE 8
SUBSCRIPT_X 0
SUBSCRIPT_Y 1
SUBSCRIPT_SIZE 8
AVG_LOWERCASE_WIDTH 102
AVG_UPPERCASE_WIDTH 111
ENDPROPERTIES
CHARS 372
STARTCHAR glyph1.dup1
ENCODING 0
SWIDTH 108 0
DWIDTH 2 0
BBX 1 1 0 0
BITMAP
00
ENDCHAR
STARTCHAR uni0002
ENCODING 2
SWIDTH 108 0
DWIDTH 2 0
BBX 1 1 0 0
BITMAP
00
ENDCHAR
STARTCHAR uni0009
ENCODING 9
SWIDTH 108 0
DWIDTH 2 0
BBX 1 1 0 0
BITMAP
00
ENDCHAR
STARTCHAR uni000A
ENCODING 10
SWIDTH 108 0
DWIDTH 2 0
BBX 1 1 0 0
BITMAP
00
ENDCHAR
STARTCHAR uni000D
ENCODING 13
SWIDTH 108 0
DWIDTH 2 0
BBX 1 1 0 0
BITMAP
00
ENDCHAR
STARTCHAR space
ENCODING 32
SWIDTH 108 0
DWIDTH 2 0
BBX 1 1 0 0
BITMAP
00
ENDCHAR
STARTCHAR exclam
ENCODING 33
SWIDTH 336 0
DWIDTH 5 0
BBX 3 12 1 -1
BITMAP
E0
E0
E0
E0
E0
E0
E0
E0
00
E0
E0
E0
ENDCHAR
STARTCHAR quotedbl
ENCODING 34
SWIDTH 538 0
DWIDTH 8 0
BBX 6 4 1 7
BITMAP
DC
DC
DC
DC
ENDCHAR
STARTCHAR numbersign
ENCODING 35
SWIDTH 1014 0
DWIDTH 14 0
BBX 14 13 0 -1
BITMAP
0528
0E70
3FFC
3FFC
35A8
1CE0
1CE0
1CE0
6B50
77B0
FFF0
39C0
2940
ENDCHAR
STARTCHAR dollar
ENCODING 36
SWIDTH 686 0
DWIDTH 10 0
BBX 9 15 0 -2
BITMAP
1400
1F00
7E80
7F80
EE00
F400
BB00
5780
3B80
0780
3B80
DD80
7F00
1C00
1400
ENDCHAR
STARTCHAR percent
ENCODING 37
SWIDTH 1504 0
DWIDTH 21 0
BBX 21 13 0 -1
BITMAP
1C0000
7F3800
7F3800
EAB800
F7A9E0
EAF7D0
7F77E8
3E7EB8
1CAB78
00EDB8
00E6F0
00E3E0
01A1C0
ENDCHAR
STARTCHAR ampersand
ENCODING 38
SWIDTH 1029 0
DWIDTH 14 0
BBX 14 11 0 0
BITMAP
3F50
7050
DF50
F050
EFAC
7FAC
AFAC
F050
7F7C
5050
3F3C
ENDCHAR
STARTCHAR quotesingle
ENCODING 39
SWIDTH 257 0
DWIDTH 4 0
BBX 2 4 1 7
BITMAP
C0
C0
C0
C0
ENDCHAR
STARTCHAR parenleft
ENCODING 40
SWIDTH 410 0
DWIDTH 6 0
BBX 4 13 1 -1
BITMAP
30
70
F0
D0
E0
E0
E0
E0
E0
D0
F0
B0
70
ENDCHAR
STARTCHAR parenright
ENCODING 41
SWIDTH 408 0
DWIDTH 6 0
BBX 5 13 0 -1
BITMAP
E0
F0
D8
F8
38
38
38
38
38
F8
58
F0
E0
ENDCHAR
STARTCHAR asterisk
ENCODING 42
SWIDTH 664 0
DWIDTH 9 0
BBX 9 9 0 1
BITMAP
1C00
7D00
5F00
FB80
2E00
FB80
7E80
5D00
1C00
ENDCHAR
STARTCHAR plus
ENCODING 43
SWIDTH 601 0
DWIDTH 8 0
BBX 7 7 1 2
BITMAP
78
78
F6
F6
F6
78
78
ENDCHAR
STARTCHAR comma
ENCODING 44
SWIDTH 252 0
DWIDTH 4 0
BBX 2 4 1 -2
BITMAP
C0
C0
C0
80
ENDCHAR
STARTCHAR hyphen
ENCODING 45
SWIDTH 473 0
DWIDTH 7 0
BBX 5 3 1 4
BITMAP
F8
F8
F8
ENDCHAR
STARTCHAR period
ENCODING 46
SWIDTH 255 0
DWIDTH 4 0
BBX 2 2 1 0
BITMAP
C0
C0
ENDCHAR
STARTCHAR slash
ENCODING 47
SWIDTH 447 0
DWIDTH 6 0
BBX 6 12 0 -1
BITMAP
1C
1C
34
38
38
38
68
70
70
70
D0
E0
ENDCHAR
STARTCHAR zero
ENCODING 48
SWIDTH 843 0
DWIDTH 12 0
BBX 11 13 0 -1
BITMAP
0F00
3FC0
5FC0
76E0
E9E0
F0A0
F0A0
F0A0
A9E0
7F60
37C0
1E80
0F00
ENDCHAR
STARTCHAR one
ENCODING 49
SWIDTH 426 0
DWIDTH 6 0
BBX 5 11 0 0
BITMAP
F8
D0
28
28
28
28
28
28
28
28
28
ENDCHAR
STARTCHAR two
ENCODING 50
SWIDTH 583 0
DWIDTH 8 0
BBX 8 12 0 0
BITMAP
F8
7E
7B
7F
0F
1D
16
3C
74
7E
00
7E
ENDCHAR
STARTCHAR three
ENCODING 51
SWIDTH 612 0
DWIDTH 9 0
BBX 8 12 0 0
BITMAP
F8
7E
7B
7F
0F
33
0D
37
0F
77
7D
FE
ENDCHAR
STARTCHAR four
ENCODING 52
SWIDTH 622 0
DWIDTH 9 0
BBX 8 11 0 0
BITMAP
1E
2A
3C
2C
7B
7B
FC
03
FC
03
03
ENDCHAR
STARTCHAR five
ENCODING 53
SWIDTH 691 0
DWIDTH 10 0
BBX 9 11 0 0
BITMAP
7F00
1F00
6000
6400
6F00
6D80
6F80
0280
3F80
DE80
7F00
ENDCHAR
STARTCHAR six
ENCODING 54
SWIDTH 781 0
DWIDTH 11 0
BBX 11 12 0 0
BITMAP
0F00
3FC0
6F80
DE00
B300
FE80
F7C0
FEA0
F1E0
5F40
7EC0
3F80
ENDCHAR
STARTCHAR seven
ENCODING 55
SWIDTH 631 0
DWIDTH 9 0
BBX 9 11 0 0
BITMAP
FF80
FF00
0F00
0F00
0A00
1E00
1E00
1E00
1400
3C00
3C00
ENDCHAR
STARTCHAR eight
ENCODING 56
SWIDTH 808 0
DWIDTH 11 0
BBX 11 13 0 -1
BITMAP
1F80
7F40
7FC0
EFE0
71E0
BEA0
51C0
BEE0
F1E0
D6E0
6FA0
3FC0
1F00
ENDCHAR
STARTCHAR nine
ENCODING 57
SWIDTH 782 0
DWIDTH 11 0
BBX 10 12 0 0
BITMAP
1E00
7F80
7EC0
EFC0
F340
DDC0
7FC0
3FC0
0140
1FC0
2F40
7F80
ENDCHAR
STARTCHAR colon
ENCODING 58
SWIDTH 262 0
DWIDTH 4 0
BBX 2 6 1 2
BITMAP
C0
C0
00
C0
00
C0
ENDCHAR
STARTCHAR semicolon
ENCODING 59
SWIDTH 261 0
DWIDTH 4 0
BBX 2 8 1 0
BITMAP
C0
C0
00
00
C0
C0
C0
80
ENDCHAR
STARTCHAR less
ENCODING 60
SWIDTH 670 0
DWIDTH 9 0
BBX 9 11 0 0
BITMAP
0180
0280
3F80
DB80
FF00
7800
EF00
7B80
1F00
0380
0080
ENDCHAR
STARTCHAR equal
ENCODING 61
SWIDTH 473 0
DWIDTH 7 0
BBX 5 6 1 2
BITMAP
F8
F8
00
F8
00
F8
ENDCHAR
STARTCHAR greater
ENCODING 62
SWIDTH 670 0
DWIDTH 9 0
BBX 8 11 1 0
BITMAP
80
E0
FC
FB
7F
16
FB
DF
F8
60
80
ENDCHAR
STARTCHAR question
ENCODING 63
SWIDTH 693 0
DWIDTH 10 0
BBX 9 12 0 0
BITMAP
3C00
FF00
7D80
1F80
0280
3F80
3E80
3F00
3000
7000
0000
7000
ENDCHAR
STARTCHAR at
ENCODING 64
SWIDTH 1076 0
DWIDTH 15 0
BBX 15 13 0 -1
BITMAP
0FE0
1FF8
3EF4
73DC
AFAA
EFEE
ECEE
EFEE
57D6
7B7C
36B8
1F80
0F80
ENDCHAR
STARTCHAR A
ENCODING 65
SWIDTH 936 0
DWIDTH 13 0
BBX 13 11 0 0
BITMAP
0F80
0F80
1AC0
1FC0
17A0
3DE0
3DE0
7750
7FF0
5FE8
F078
ENDCHAR
STARTCHAR B
ENCODING 66
SWIDTH 862 0
DWIDTH 12 0
BBX 11 11 1 0
BITMAP
FF80
A1C0
DF40
E1E0
DEA0
DFC0
DEE0
E1E0
FFA0
E140
FF80
ENDCHAR
STARTCHAR C
ENCODING 67
SWIDTH 852 0
DWIDTH 12 0
BBX 12 13 0 -1
BITMAP
0F80
1760
3FD0
7760
D880
F000
F000
F000
58C0
6FB0
3760
1FC0
0700
ENDCHAR
STARTCHAR D
ENCODING 68
SWIDTH 886 0
DWIDTH 12 0
BBX 11 11 1 0
BITMAP
FF80
A340
DDC0
E3E0
E1E0
E1E0
E1E0
E2A0
FFC0
8380
FF00
ENDCHAR
STARTCHAR E
ENCODING 69
SWIDTH 706 0
DWIDTH 10 0
BBX 8 11 1 0
BITMAP
FF
FF
E0
E0
DC
DC
DC
E0
FF
E0
DF
ENDCHAR
STARTCHAR F
ENCODING 70
SWIDTH 683 0
DWIDTH 10 0
BBX 8 11 1 0
BITMAP
FF
FF
E0
E0
FF
E0
FF
E0
E0
E0
E0
ENDCHAR
STARTCHAR G
ENCODING 71
SWIDTH 908 0
DWIDTH 13 0
BBX 12 13 0 -1
BITMAP
0F80
1760
3FD0
7760
D880
F000
F0F0
F0F0
58F0
6FF0
37F0
1FF0
0700
ENDCHAR
STARTCHAR H
ENCODING 72
SWIDTH 901 0
DWIDTH 13 0
BBX 11 11 1 0
BITMAP
E0E0
E0E0
E0E0
E0E0
DFE0
DFE0
DFE0
E0E0
E0E0
E0E0
E0E0
ENDCHAR
STARTCHAR I
ENCODING 73
SWIDTH 338 0
DWIDTH 5 0
BBX 3 11 1 0
BITMAP
E0
E0
E0
E0
E0
E0
E0
E0
E0
E0
E0
ENDCHAR
STARTCHAR J
ENCODING 74
SWIDTH 434 0
DWIDTH 6 0
BBX 5 12 0 -1
BITMAP
38
38
38
38
38
38
38
28
F8
F8
D0
E0
ENDCHAR
STARTCHAR K
ENCODING 75
SWIDTH 815 0
DWIDTH 11 0
BBX 10 11 1 0
BITMAP
E3C0
E780
E580
EF00
EB00
DD00
EF00
EE80
E780
E740
E3C0
ENDCHAR
STARTCHAR L
ENCODING 76
SWIDTH 604 0
DWIDTH 8 0
BBX 7 11 1 0
BITMAP
E0
E0
E0
E0
E0
E0
E0
E0
FE
E0
DE
ENDCHAR
STARTCHAR M
ENCODING 77
SWIDTH 920 0
DWIDTH 13 0
BBX 11 11 1 0
BITMAP
E0E0
D1E0
F1E0
D3E0
BBE0
EF60
DF60
EEE0
E0E0
E0E0
E0E0
ENDCHAR
STARTCHAR N
ENCODING 78
SWIDTH 877 0
DWIDTH 12 0
BBX 11 11 1 0
BITMAP
F1E0
B9E0
F5E0
BDE0
EBE0
DEE0
EFE0
ED60
E7E0
E5E0
E3A0
ENDCHAR
STARTCHAR O
ENCODING 79
SWIDTH 933 0
DWIDTH 13 0
BBX 13 13 0 -1
BITMAP
0F80
1760
3FD0
7770
D8A8
F078
F078
F078
58E8
6FB0
3760
1FC0
0700
ENDCHAR
STARTCHAR P
ENCODING 80
SWIDTH 850 0
DWIDTH 12 0
BBX 10 11 1 0
BITMAP
FF80
A1C0
DFC0
E1C0
E140
FFC0
E140
FF80
E000
E000
E000
ENDCHAR
STARTCHAR Q
ENCODING 81
SWIDTH 937 0
DWIDTH 13 0
BBX 13 14 0 -2
BITMAP
0F80
1760
3FD0
7770
D8A8
F078
F078
F1F8
5AE8
6FB0
3760
1FE0
0770
0040
ENDCHAR
STARTCHAR R
ENCODING 82
SWIDTH 843 0
DWIDTH 12 0
BBX 10 11 1 0
BITMAP
FF80
A140
DFC0
E140
DEC0
DFC0
DF80
DF80
E780
E780
E3C0
ENDCHAR
STARTCHAR S
ENCODING 83
SWIDTH 682 0
DWIDTH 10 0
BBX 9 13 0 -1
BITMAP
3F00
5E80
7F80
EE00
F400
DB00
7780
3B80
0780
3B80
DE80
7F00
1C00
ENDCHAR
STARTCHAR T
ENCODING 84
SWIDTH 591 0
DWIDTH 8 0
BBX 8 11 0 0
BITMAP
FF
C3
3C
3C
3C
3C
3C
3C
3C
3C
3C
ENDCHAR
STARTCHAR U
ENCODING 85
SWIDTH 905 0
DWIDTH 13 0
BBX 11 12 1 -1
BITMAP
E1E0
E1E0
E1E0
E1E0
E1E0
E1E0
E1E0
B1E0
DFA0
6F40
3F80
0E00
ENDCHAR
STARTCHAR V
ENCODING 86
SWIDTH 940 0
DWIDTH 13 0
BBX 13 11 0 0
BITMAP
F878
78F0
78F0
2950
3DE0
3D60
1FC0
1FC0
0D40
0F80
0B80
ENDCHAR
STARTCHAR W
ENCODING 87
SWIDTH 1161 0
DWIDTH 16 0
BBX 16 11 0 0
BITMAP
F3CF
52AA
7F7E
7FFE
77DE
2D54
3EFC
3FFC
2BBC
1E54
1E78
ENDCHAR
STARTCHAR X
ENCODING 88
SWIDTH 876 0
DWIDTH 12 0
BBX 12 11 0 0
BITMAP
D9F0
7760
3DC0
2F40
1B80
0E80
1B80
17C0
3F60
6DE0
79F0
ENDCHAR
STARTCHAR Y
ENCODING 89
SWIDTH 789 0
DWIDTH 11 0
BBX 11 11 0 0
BITMAP
F1E0
7BC0
7B40
3E80
3780
1F00
1F00
0A00
0A00
0A00
0A00
ENDCHAR
STARTCHAR Z
ENCODING 90
SWIDTH 854 0
DWIDTH 12 0
BBX 10 11 1 0
BITMAP
FFC0
0DC0
F2C0
0FC0
1780
7D00
BE00
E800
FFC0
D000
FFC0
ENDCHAR
STARTCHAR bracketleft
ENCODING 91
SWIDTH 320 0
DWIDTH 4 0
BBX 3 13 1 -1
BITMAP
E0
E0
A0
C0
C0
C0
C0
C0
C0
C0
C0
E0
E0
ENDCHAR
STARTCHAR backslash
ENCODING 92
SWIDTH 448 0
DWIDTH 6 0
BBX 6 12 0 -1
BITMAP
E0
A0
70
70
70
50
38
38
38
14
1C
1C
ENDCHAR
STARTCHAR bracketright
ENCODING 93
SWIDTH 319 0
DWIDTH 4 0
BBX 4 13 0 -1
BITMAP
F0
F0
F0
70
70
70
70
70
70
70
70
F0
F0
ENDCHAR
STARTCHAR asciicircum
ENCODING 94
SWIDTH 475 0
DWIDTH 7 0
BBX 6 6 0 4
BITMAP
30
38
58
68
4C
CC
ENDCHAR
STARTCHAR underscore
ENCODING 95
SWIDTH 511 0
DWIDTH 7 0
BBX 6 2 1 -2
BITMAP
FC
FC
ENDCHAR
STARTCHAR grave
ENCODING 96
SWIDTH 472 0
DWIDTH 7 0
BBX 6 3 0 10
BITMAP
F0
6C
18
ENDCHAR
STARTCHAR a
ENCODING 97
SWIDTH 832 0
DWIDTH 12 0
BBX 11 10 0 0
BITMAP
1F80
3F40
6FA0
DFE0
F1E0
F1E0
E9E0
7FE0
77E0
1FE0
ENDCHAR
STARTCHAR b
ENCODING 98
SWIDTH 720 0
DWIDTH 10 0
BBX 9 10 1 0
BITMAP
FE00
FF00
BD80
C380
FE80
FF00
C380
BD80
BF00
BE00
ENDCHAR
STARTCHAR c
ENCODING 99
SWIDTH 736 0
DWIDTH 10 0
BBX 10 11 0 -1
BITMAP
1F80
3940
7F80
E900
F000
F000
E900
7700
5EC0
3F80
0E00
ENDCHAR
STARTCHAR d
ENCODING 100
SWIDTH 833 0
DWIDTH 12 0
BBX 10 10 1 0
BITMAP
FF00
FE80
BF40
DDC0
E3C0
E3C0
E3C0
FEC0
8380
FF00
ENDCHAR
STARTCHAR e
ENCODING 101
SWIDTH 666 0
DWIDTH 9 0
BBX 8 10 1 0
BITMAP
DF
DF
DF
E0
FF
FF
FF
FF
E0
DF
ENDCHAR
STARTCHAR f
ENCODING 102
SWIDTH 625 0
DWIDTH 9 0
BBX 7 10 1 0
BITMAP
DE
DE
DE
E0
DE
DE
DE
E0
E0
E0
ENDCHAR
STARTCHAR g
ENCODING 103
SWIDTH 827 0
DWIDTH 12 0
BBX 11 11 0 -1
BITMAP
1F80
3940
7F80
E900
F000
F1E0
E9E0
77E0
5FE0
3FE0
0E00
ENDCHAR
STARTCHAR h
ENCODING 104
SWIDTH 830 0
DWIDTH 12 0
BBX 10 10 1 0
BITMAP
E2C0
E2C0
E2C0
FEC0
E2C0
FEC0
E2C0
E2C0
E2C0
E2C0
ENDCHAR
STARTCHAR i
ENCODING 105
SWIDTH 337 0
DWIDTH 5 0
BBX 3 10 1 0
BITMAP
E0
E0
E0
E0
E0
E0
E0
E0
E0
E0
ENDCHAR
STARTCHAR j
ENCODING 106
SWIDTH 393 0
DWIDTH 6 0
BBX 5 11 0 -1
BITMAP
78
78
78
78
78
78
78
78
F8
B0
E0
ENDCHAR
STARTCHAR k
ENCODING 107
SWIDTH 801 0
DWIDTH 11 0
BBX 10 10 1 0
BITMAP
E3C0
E780
E580
EF00
F500
FA00
EF00
EA80
E780
E3C0
ENDCHAR
STARTCHAR l
ENCODING 108
SWIDTH 583 0
DWIDTH 8 0
BBX 7 10 1 0
BITMAP
E0
E0
E0
E0
E0
E0
E0
FE
E0
DE
ENDCHAR
STARTCHAR m
ENCODING 109
SWIDTH 1167 0
DWIDTH 16 0
BBX 15 10 1 0
BITMAP
7FF8
E79C
BFF6
E79E
A79E
A79E
A79E
A79E
A79E
A79E
ENDCHAR
STARTCHAR n
ENCODING 110
SWIDTH 787 0
DWIDTH 11 0
BBX 9 10 1 0
BITMAP
F180
D180
F980
D580
BD80
D680
DD80
CF80
CD80
C780
ENDCHAR
STARTCHAR o
ENCODING 111
SWIDTH 833 0
DWIDTH 12 0
BBX 11 11 0 -1
BITMAP
1F80
39C0
7F60
E9E0
F1E0
F1E0
E9E0
7760
5EC0
3F80
0E00
ENDCHAR
STARTCHAR p
ENCODING 112
SWIDTH 781 0
DWIDTH 11 0
BBX 9 10 1 0
BITMAP
FF00
FE80
BF80
DF80
DD80
DF80
DE80
DF00
E000
E000
ENDCHAR
STARTCHAR q
ENCODING 113
SWIDTH 788 0
DWIDTH 11 0
BBX 10 11 0 -1
BITMAP
1FC0
3FC0
7F40
EEC0
F140
F140
7F40
5140
3F40
0140
0140
ENDCHAR
STARTCHAR r
ENCODING 114
SWIDTH 831 0
DWIDTH 12 0
BBX 10 10 1 0
BITMAP
FF00
FF80
BEC0
DFC0
DFC0
DEC0
DF80
DF00
E780
E780
ENDCHAR
STARTCHAR s
ENCODING 115
SWIDTH 683 0
DWIDTH 10 0
BBX 9 10 0 0
BITMAP
3F00
7F80
DF00
E000
BF00
7E80
1F80
3780
EA80
7F00
ENDCHAR
STARTCHAR t
ENCODING 116
SWIDTH 588 0
DWIDTH 8 0
BBX 8 10 0 0
BITMAP
FF
FF
FF
3C
3C
3C
3C
3C
3C
3C
ENDCHAR
STARTCHAR u
ENCODING 117
SWIDTH 795 0
DWIDTH 11 0
BBX 10 11 1 -1
BITMAP
E3C0
E3C0
E3C0
E3C0
E3C0
E3C0
D280
EF80
BE80
7F00
1C00
ENDCHAR
STARTCHAR v
ENCODING 118
SWIDTH 855 0
DWIDTH 12 0
BBX 12 10 0 0
BITMAP
F0F0
51E0
79E0
7AA0
3FC0
3DC0
1780
1F80
1A80
0F00
ENDCHAR
STARTCHAR w
ENCODING 119
SWIDTH 1129 0
DWIDTH 16 0
BBX 14 10 1 0
BITMAP
E79C
E79C
E79C
E79C
E79C
E79C
E7BC
BDFC
FB54
7FF8
ENDCHAR
STARTCHAR x
ENCODING 120
SWIDTH 790 0
DWIDTH 11 0
BBX 11 10 0 0
BITMAP
DB60
75C0
3F80
2D80
1700
1D00
2E80
3B80
75C0
FBE0
ENDCHAR
STARTCHAR y
ENCODING 121
SWIDTH 733 0
DWIDTH 10 0
BBX 10 10 0 0
BITMAP
F3C0
5280
7B80
2E80
3F00
1F00
1E00
0E00
0E00
0E00
ENDCHAR
STARTCHAR z
ENCODING 122
SWIDTH 714 0
DWIDTH 10 0
BBX 10 10 0 0
BITMAP
7FC0
7F80
7D80
0F00
1D00
2E00
3C00
6F80
7800
FF80
ENDCHAR
STARTCHAR braceleft
ENCODING 123
SWIDTH 396 0
DWIDTH 6 0
BBX 5 15 0 -3
BITMAP
18
38
68
70
70
70
B0
60
B0
70
70
70
78
38
18
ENDCHAR
STARTCHAR bar
ENCODING 124
SWIDTH 266 0
DWIDTH 4 0
BBX 2 12 1 -1
BITMAP
C0
C0
C0
C0
C0
C0
C0
C0
C0
C0
C0
C0
ENDCHAR
STARTCHAR braceright
ENCODING 125
SWIDTH 396 0
DWIDTH 6 0
BBX 5 15 0 -3
BITMAP
E0
D0
F0
28
28
28
38
28
38
28
28
28
F0
F0
E0
ENDCHAR
STARTCHAR asciitilde
ENCODING 126
SWIDTH 665 0
DWIDTH 9 0
BBX 9 2 0 8
BITMAP
7D80
DF00
ENDCHAR
STARTCHAR uni00A0
ENCODING 160
SWIDTH 108 0
DWIDTH 2 0
BBX 1 1 0 0
BITMAP
00
ENDCHAR
STARTCHAR exclamdown
ENCODING 161
SWIDTH 336 0
DWIDTH 5 0
BBX 3 12 1 -1
BITMAP
E0
E0
E0
E0
E0
E0
E0
E0
00
E0
E0
E0
ENDCHAR
STARTCHAR cent
ENCODING 162
SWIDTH 708 0
DWIDTH 10 0
BBX 10 14 0 -1
BITMAP
0A00
0A00
0E00
3F80
6EC0
BF00
F000
F000
EA00
7580
7FC0
1500
0E00
0A00
ENDCHAR
STARTCHAR sterling
ENCODING 163
SWIDTH 689 0
DWIDTH 10 0
BBX 8 12 1 0
BITMAP
3E
FD
FF
DC
E0
DE
DE
DE
E0
FE
E0
DE
ENDCHAR
STARTCHAR currency
ENCODING 164
SWIDTH 715 0
DWIDTH 10 0
BBX 10 11 0 0
BITMAP
2100
E1C0
7F80
3F00
6100
6180
6180
5280
6D80
BF40
6180
ENDCHAR
STARTCHAR yen
ENCODING 165
SWIDTH 796 0
DWIDTH 11 0
BBX 11 11 0 0
BITMAP
F1E0
7BC0
7BC0
3F80
3780
1F00
0F00
0A00
3AC0
0A00
0A00
ENDCHAR
STARTCHAR brokenbar
ENCODING 166
SWIDTH 263 0
DWIDTH 4 0
BBX 2 12 1 -1
BITMAP
C0
C0
C0
C0
C0
00
00
C0
C0
C0
C0
C0
ENDCHAR
STARTCHAR section
ENCODING 167
SWIDTH 108 0
DWIDTH 2 0
BBX 1 1 0 0
BITMAP
00
ENDCHAR
STARTCHAR dieresis
ENCODING 168
SWIDTH 556 0
DWIDTH 8 0
BBX 6 2 1 10
BITMAP
CC
CC
ENDCHAR
STARTCHAR copyright
ENCODING 169
SWIDTH 869 0
DWIDTH 12 0
BBX 12 12 0 0
BITMAP
0F00
30C0
4F20
50A0
9010
A010
A010
5010
49A0
2640
1980
0600
ENDCHAR
STARTCHAR ordfeminine
ENCODING 170
SWIDTH 833 0
DWIDTH 12 0
BBX 11 10 0 0
BITMAP
1F80
3F40
6FA0
BFE0
F1E0
F1E0
E9E0
7FE0
37E0
1FE0
ENDCHAR
STARTCHAR guillemotleft
ENCODING 171
SWIDTH 911 0
DWIDTH 13 0
BBX 11 7 1 2
BITMAP
0820
38E0
FBC0
F360
DBE0
F160
38E0
ENDCHAR
STARTCHAR logicalnot
ENCODING 172
SWIDTH 718 0
DWIDTH 10 0
BBX 8 4 1 3
BITMAP
FF
FF
03
03
ENDCHAR
STARTCHAR registered
ENCODING 174
SWIDTH 869 0
DWIDTH 12 0
BBX 12 12 0 0
BITMAP
0F00
30C0
4020
4F20
8890
8990
8E10
4910
4920
20C0
1980
0600
ENDCHAR
STARTCHAR degree
ENCODING 176
SWIDTH 330 0
DWIDTH 5 0
BBX 4 4 0 11
BITMAP
60
B0
D0
70
ENDCHAR
STARTCHAR plusminus
ENCODING 177
SWIDTH 598 0
DWIDTH 8 0
BBX 8 9 0 0
BITMAP
2C
2C
EF
EF
EF
2C
2C
7F
7F
ENDCHAR
STARTCHAR uni00B2
ENCODING 178
SWIDTH 435 0
DWIDTH 6 0
BBX 6 9 0 2
BITMAP
FC
4C
08
18
30
60
60
F8
F8
ENDCHAR
STARTCHAR uni00B3
ENCODING 179
SWIDTH 515 0
DWIDTH 7 0
BBX 7 9 0 2
BITMAP
F8
7C
4A
3A
3C
36
6E
1A
FC
ENDCHAR
STARTCHAR acute
ENCODING 180
SWIDTH 472 0
DWIDTH 7 0
BBX 6 3 0 10
BITMAP
1C
F8
60
ENDCHAR
STARTCHAR uni00B5
ENCODING 181
SWIDTH 802 0
DWIDTH 11 0
BBX 10 11 1 -1
BITMAP
E3C0
E3C0
E3C0
E3C0
E3C0
E3C0
E3C0
FF40
FE80
FF00
FC00
ENDCHAR
STARTCHAR paragraph
ENCODING 182
SWIDTH 676 0
DWIDTH 9 0
BBX 9 11 0 -1
BITMAP
3F80
5F80
7F80
EF80
FF80
7F80
5F80
3F80
0780
0780
0780
ENDCHAR
STARTCHAR periodcentered
ENCODING 183
SWIDTH 260 0
DWIDTH 4 0
BBX 2 3 1 5
BITMAP
C0
C0
C0
ENDCHAR
STARTCHAR cedilla
ENCODING 184
SWIDTH 321 0
DWIDTH 5 0
BBX 3 4 1 -5
BITMAP
E0
E0
80
E0
ENDCHAR
STARTCHAR uni00B9
ENCODING 185
SWIDTH 359 0
DWIDTH 5 0
BBX 4 8 0 3
BITMAP
F0
30
30
30
30
30
30
30
ENDCHAR
STARTCHAR ordmasculine
ENCODING 186
SWIDTH 835 0
DWIDTH 12 0
BBX 11 11 0 -1
BITMAP
1F80
39C0
7F60
D9E0
F1E0
F0A0
E9E0
7F60
56C0
3F80
0E00
ENDCHAR
STARTCHAR guillemotright
ENCODING 187
SWIDTH 912 0
DWIDTH 13 0
BBX 11 7 1 2
BITMAP
8600
E580
5BE0
FB60
9BE0
F340
C380
ENDCHAR
STARTCHAR onequarter
ENCODING 188
SWIDTH 1236 0
DWIDTH 17 0
BBX 17 12 0 -1
BITMAP
F1C000
29C100
29CE00
294E00
2B9A00
2B9D00
2BB500
2ABF80
073F80
073F80
070100
050000
ENDCHAR
STARTCHAR onehalf
ENCODING 189
SWIDTH 1154 0
DWIDTH 16 0
BBX 16 12 0 -1
BITMAP
F1C0
29C0
29DE
295F
2B83
2B86
2B8A
2A8C
0718
0700
073E
0500
ENDCHAR
STARTCHAR threequarters
ENCODING 190
SWIDTH 1345 0
DWIDTH 19 0
BBX 19 12 0 -1
BITMAP
F87000
7C7000
0A7380
3A5680
3CE700
36EDC0
6EEEC0
1AAFE0
FDCFE0
01CFE0
01C0C0
014000
ENDCHAR
STARTCHAR questiondown
ENCODING 191
SWIDTH 693 0
DWIDTH 10 0
BBX 9 12 0 0
BITMAP
3C00
FF00
7D80
1F80
0280
3F80
3E80
3F00
3000
7000
0000
7000
ENDCHAR
STARTCHAR Agrave
ENCODING 192
SWIDTH 936 0
DWIDTH 13 0
BBX 13 16 0 0
BITMAP
3800
1E00
0700
0000
0000
0F80
0F80
1AC0
1FC0
17A0
3DE0
3DE0
7750
7FF0
5FE8
F078
ENDCHAR
STARTCHAR Aacute
ENCODING 193
SWIDTH 936 0
DWIDTH 13 0
BBX 13 16 0 0
BITMAP
00E0
03C0
0700
0000
0000
0F80
0F80
1AC0
1FC0
17A0
3DE0
3DE0
7750
7FF0
5FE8
F078
ENDCHAR
STARTCHAR Acircumflex
ENCODING 194
SWIDTH 936 0
DWIDTH 13 0
BBX 13 16 0 0
BITMAP
0300
0700
0680
0900
0000
0F80
0F80
1AC0
1FC0
17A0
3DE0
3DE0
7750
7FF0
5FE8
F078
ENDCHAR
STARTCHAR Atilde
ENCODING 195
SWIDTH 936 0
DWIDTH 13 0
BBX 13 15 0 0
BITMAP
1F60
37C0
0000
0000
0F80
0F80
1AC0
1FC0
17A0
3DE0
3DE0
7750
7FF0
5FE8
F078
ENDCHAR
STARTCHAR Adieresis
ENCODING 196
SWIDTH 936 0
DWIDTH 13 0
BBX 13 14 0 0
BITMAP
1DC0
1DC0
0000
0F80
0F80
1AC0
1FC0
17A0
3DE0
3DE0
7750
7FF0
5FE8
F078
ENDCHAR
STARTCHAR Aring
ENCODING 197
SWIDTH 936 0
DWIDTH 13 0
BBX 13 16 0 0
BITMAP
0200
0700
0500
0700
0000
0F80
0F80
1AC0
1FC0
17A0
3DE0
3DE0
7750
7FF0
5FE8
F078
ENDCHAR
STARTCHAR AE
ENCODING 198
SWIDTH 1198 0
DWIDTH 17 0
BBX 16 11 0 0
BITMAP
0FFF
0FBF
1AC0
1FC0
17BE
3DFE
3DDE
7750
7FFF
5FF0
F07F
ENDCHAR
STARTCHAR Ccedilla
ENCODING 199
SWIDTH 852 0
DWIDTH 12 0
BBX 12 17 0 -5
BITMAP
0F80
1760
3FD0
7760
D880
F000
F000
F000
58C0
6FB0
3760
1FC0
0700
0500
0E00
0C00
0E00
ENDCHAR
STARTCHAR Egrave
ENCODING 200
SWIDTH 706 0
DWIDTH 10 0
BBX 9 16 0 0
BITMAP
F000
6C00
1800
0000
0F80
F000
FF80
F000
F000
EE00
EE00
EE00
F000
FF80
F000
EF80
ENDCHAR
STARTCHAR Eacute
ENCODING 201
SWIDTH 706 0
DWIDTH 10 0
BBX 9 16 1 0
BITMAP
0780
1B00
0C00
0000
1F00
E000
FF00
E000
E000
DC00
DC00
DC00
E000
FF00
E000
DF00
ENDCHAR
STARTCHAR Ecircumflex
ENCODING 202
SWIDTH 706 0
DWIDTH 10 0
BBX 8 16 1 0
BITMAP
18
28
3C
00
1F
E0
FF
E0
E0
DC
DC
DC
E0
FF
E0
DF
ENDCHAR
STARTCHAR Edieresis
ENCODING 203
SWIDTH 706 0
DWIDTH 10 0
BBX 8 14 1 0
BITMAP
E5
E5
1F
E0
FF
E0
E0
DC
DC
DC
E0
FF
E0
DF
ENDCHAR
STARTCHAR Igrave
ENCODING 204
SWIDTH 338 0
DWIDTH 5 0
BBX 6 16 -2 0
BITMAP
E0
7C
18
00
00
3C
3C
3C
3C
3C
3C
3C
3C
3C
3C
3C
ENDCHAR
STARTCHAR Iacute
ENCODING 205
SWIDTH 338 0
DWIDTH 5 0
BBX 6 16 1 0
BITMAP
1C
78
E0
00
00
E0
E0
E0
E0
E0
E0
E0
E0
E0
E0
E0
ENDCHAR
STARTCHAR Icircumflex
ENCODING 206
SWIDTH 338 0
DWIDTH 5 0
BBX 4 16 0 0
BITMAP
50
70
F0
00
00
F0
F0
F0
F0
F0
F0
F0
F0
F0
F0
F0
ENDCHAR
STARTCHAR Idieresis
ENCODING 207
SWIDTH 338 0
DWIDTH 5 0
BBX 7 14 -1 0
BITMAP
CE
CE
00
78
78
78
78
78
78
78
78
78
78
78
ENDCHAR
STARTCHAR Eth
ENCODING 208
SWIDTH 905 0
DWIDTH 13 0
BBX 12 11 0 0
BITMAP
7FC0
40E0
5FB0
50F0
FCF0
FCF0
FCF0
5170
5FD0
41A0
7FC0
ENDCHAR
STARTCHAR Ntilde
ENCODING 209
SWIDTH 877 0
DWIDTH 12 0
BBX 11 15 1 0
BITMAP
7F80
7F80
0000
0000
F1E0
B9E0
F5E0
BDE0
EBE0
DEE0
EFE0
ED60
E7E0
E5E0
E3A0
ENDCHAR
STARTCHAR Ograve
ENCODING 210
SWIDTH 933 0
DWIDTH 13 0
BBX 13 17 0 -1
BITMAP
3800
1E00
0700
0000
0F80
1760
3FD0
7770
D8A8
F078
F078
F078
58E8
6FB0
3760
1FC0
0700
ENDCHAR
STARTCHAR Oacute
ENCODING 211
SWIDTH 933 0
DWIDTH 13 0
BBX 13 17 0 -1
BITMAP
00E0
03C0
0700
0000
0F80
1760
3FD0
7770
D8A8
F078
F078
F078
58E8
6FB0
3760
1FC0
0700
ENDCHAR
STARTCHAR Ocircumflex
ENCODING 212
SWIDTH 933 0
DWIDTH 13 0
BBX 13 17 0 -1
BITMAP
0500
0700
0700
0880
0F80
1760
3FD0
7770
D8A8
F078
F078
F078
58E8
6FB0
3760
1FC0
0700
ENDCHAR
STARTCHAR Otilde
ENCODING 213
SWIDTH 933 0
DWIDTH 13 0
BBX 13 16 0 -1
BITMAP
1F60
37C0
0000
0F80
1760
3FD0
7770
D8A8
F078
F078
F078
58E8
6FB0
3760
1FC0
0700
ENDCHAR
STARTCHAR Odieresis
ENCODING 214
SWIDTH 933 0
DWIDTH 13 0
BBX 13 15 0 -1
BITMAP
1DC0
1DC0
0F80
1760
3FD0
7770
D8A8
F078
F078
F078
58E8
6FB0
3760
1FC0
0700
ENDCHAR
STARTCHAR multiply
ENCODING 215
SWIDTH 790 0
DWIDTH 11 0
BBX 11 10 0 0
BITMAP
DB60
75C0
3F80
2D80
1700
1D00
2E80
3B80
75C0
FBE0
ENDCHAR
STARTCHAR Oslash
ENCODING 216
SWIDTH 938 0
DWIDTH 13 0
BBX 13 15 0 -2
BITMAP
00E0
0FE0
1760
3FD0
7770
D8A8
F078
F078
F078
58E8
6FB0
3F60
37C0
3F00
3000
ENDCHAR
STARTCHAR Ugrave
ENCODING 217
SWIDTH 905 0
DWIDTH 13 0
BBX 11 17 1 -1
BITMAP
6000
3C00
0C00
0000
0000
E1E0
E1E0
E1E0
E1E0
E1E0
E1E0
E1E0
B1E0
DFA0
6F40
3F80
0E00
ENDCHAR
STARTCHAR Uacute
ENCODING 218
SWIDTH 905 0
DWIDTH 13 0
BBX 11 17 1 -1
BITMAP
01C0
0780
0E00
0000
0000
E1E0
E1E0
E1E0
E1E0
E1E0
E1E0
E1E0
B1E0
DFA0
6F40
3F80
0E00
ENDCHAR
STARTCHAR Ucircumflex
ENCODING 219
SWIDTH 905 0
DWIDTH 13 0
BBX 11 17 1 -1
BITMAP
0C00
0E00
1600
0800
0000
E1E0
E1E0
E1E0
E1E0
E1E0
E1E0
E1E0
B1E0
DFA0
6F40
3F80
0E00
ENDCHAR
STARTCHAR Udieresis
ENCODING 220
SWIDTH 905 0
DWIDTH 13 0
BBX 11 15 1 -1
BITMAP
2B80
2B80
0000
E1E0
E1E0
E1E0
E1E0
E1E0
E1E0
E1E0
B1E0
DFA0
6F40
3F80
0E00
ENDCHAR
STARTCHAR Yacute
ENCODING 221
SWIDTH 789 0
DWIDTH 11 0
BBX 11 16 0 0
BITMAP
01C0
0780
0E00
0000
0000
F1E0
7BC0
7B40
3E80
3780
1F00
1F00
0A00
0A00
0A00
0A00
ENDCHAR
STARTCHAR Thorn
ENCODING 222
SWIDTH 798 0
DWIDTH 11 0
BBX 10 13 1 -1
BITMAP
E000
DC00
DF00
DF80
DF40
E3C0
E3C0
E5C0
FF80
E280
FF00
E000
E000
ENDCHAR
STARTCHAR germandbls
ENCODING 223
SWIDTH 826 0
DWIDTH 12 0
BBX 10 13 1 -1
BITMAP
3E00
FF80
FE80
DFC0
FFC0
E2C0
FDC0
E3C0
E3C0
FEC0
E380
FF00
E000
ENDCHAR
STARTCHAR agrave
ENCODING 224
SWIDTH 832 0
DWIDTH 12 0
BBX 11 14 0 0
BITMAP
7000
3C00
0E00
0000
1F80
3F40
6FA0
DFE0
F1E0
F1E0
E9E0
7FE0
77E0
1FE0
ENDCHAR
STARTCHAR aacute
ENCODING 225
SWIDTH 832 0
DWIDTH 12 0
BBX 11 14 0 0
BITMAP
01C0
0F80
0600
0000
1F80
3F40
6FA0
DFE0
F1E0
F1E0
E9E0
7FE0
77E0
1FE0
ENDCHAR
STARTCHAR acircumflex
ENCODING 226
SWIDTH 832 0
DWIDTH 12 0
BBX 11 14 0 0
BITMAP
0600
0E00
0A00
0100
1F80
3F40
6FA0
DFE0
F1E0
F1E0
E9E0
7FE0
77E0
1FE0
ENDCHAR
STARTCHAR atilde
ENCODING 227
SWIDTH 832 0
DWIDTH 12 0
BBX 11 13 0 0
BITMAP
3EC0
6F80
0000
1F80
3F40
6FA0
DFE0
F1E0
F1E0
E9E0
7FE0
77E0
1FE0
ENDCHAR
STARTCHAR adieresis
ENCODING 228
SWIDTH 832 0
DWIDTH 12 0
BBX 11 13 0 0
BITMAP
3980
3980
0000
1F80
3F40
6FA0
DFE0
F1E0
F1E0
E9E0
7FE0
77E0
1FE0
ENDCHAR
STARTCHAR aring
ENCODING 229
SWIDTH 832 0
DWIDTH 12 0
BBX 11 15 0 0
BITMAP
0600
0D00
0B00
0E00
0000
1F80
3F40
6FA0
DFE0
F1E0
F1E0
E9E0
7FE0
77E0
1FE0
ENDCHAR
STARTCHAR ae
ENCODING 230
SWIDTH 1166 0
DWIDTH 16 0
BBX 16 10 0 0
BITMAP
1FDF
3F5F
6FBF
DFE0
F1FF
F1FF
E9FF
7FFF
77E0
1FDF
ENDCHAR
STARTCHAR ccedilla
ENCODING 231
SWIDTH 736 0
DWIDTH 10 0
BBX 10 15 0 -5
BITMAP
1F80
3940
7F80
E900
F000
F000
E900
7700
5EC0
3F80
0E00
0E00
1600
1800
1E00
ENDCHAR
STARTCHAR egrave
ENCODING 232
SWIDTH 666 0
DWIDTH 9 0
BBX 9 14 0 0
BITMAP
E000
7800
1C00
0000
EF80
EF80
EF80
F000
FF80
FF80
FF80
FF80
F000
EF80
ENDCHAR
STARTCHAR eacute
ENCODING 233
SWIDTH 666 0
DWIDTH 9 0
BBX 8 14 1 0
BITMAP
03
0E
18
00
DF
DF
DF
E0
FF
FF
FF
FF
E0
DF
ENDCHAR
STARTCHAR ecircumflex
ENCODING 234
SWIDTH 666 0
DWIDTH 9 0
BBX 8 14 1 0
BITMAP
18
38
34
08
DF
DF
DF
E0
FF
FF
FF
FF
E0
DF
ENDCHAR
STARTCHAR edieresis
ENCODING 235
SWIDTH 666 0
DWIDTH 9 0
BBX 8 13 1 0
BITMAP
EE
EE
00
DF
DF
DF
E0
FF
FF
FF
FF
E0
DF
ENDCHAR
STARTCHAR igrave
ENCODING 236
SWIDTH 337 0
DWIDTH 5 0
BBX 6 14 -2 0
BITMAP
E0
7C
18
00
3C
3C
3C
3C
3C
3C
3C
3C
3C
3C
ENDCHAR
STARTCHAR iacute
ENCODING 237
SWIDTH 337 0
DWIDTH 5 0
BBX 6 14 1 0
BITMAP
1C
78
E0
00
E0
E0
E0
E0
E0
E0
E0
E0
E0
E0
ENDCHAR
STARTCHAR icircumflex
ENCODING 238
SWIDTH 337 0
DWIDTH 5 0
BBX 4 14 0 0
BITMAP
50
70
F0
00
F0
F0
F0
F0
F0
F0
F0
F0
F0
F0
ENDCHAR
STARTCHAR idieresis
ENCODING 239
SWIDTH 337 0
DWIDTH 5 0
BBX 7 13 -1 0
BITMAP
CE
CE
00
78
78
78
78
78
78
78
78
78
78
ENDCHAR
STARTCHAR eth
ENCODING 240
SWIDTH 783 0
DWIDTH 11 0
BBX 10 12 0 0
BITMAP
1E00
7F80
3EC0
1FC0
0140
3EC0
6D40
DF40
F340
FFC0
6F40
3F80
ENDCHAR
STARTCHAR ntilde
ENCODING 241
SWIDTH 787 0
DWIDTH 11 0
BBX 9 13 1 0
BITMAP
FD80
DF00
0000
F180
D180
F980
D580
BD80
D680
DD80
CF80
CD80
C780
ENDCHAR
STARTCHAR ograve
ENCODING 242
SWIDTH 833 0
DWIDTH 12 0
BBX 11 15 0 -1
BITMAP
7000
3C00
0E00
0000
1F80
39C0
7F60
E9E0
F1E0
F1E0
E9E0
7760
5EC0
3F80
0E00
ENDCHAR
STARTCHAR oacute
ENCODING 243
SWIDTH 833 0
DWIDTH 12 0
BBX 11 15 0 -1
BITMAP
00C0
0380
0600
0000
1F80
39C0
7F60
E9E0
F1E0
F1E0
E9E0
7760
5EC0
3F80
0E00
ENDCHAR
STARTCHAR ocircumflex
ENCODING 244
SWIDTH 833 0
DWIDTH 12 0
BBX 11 15 0 -1
BITMAP
0600
0E00
0F00
0000
1F80
39C0
7F60
E9E0
F1E0
F1E0
E9E0
7760
5EC0
3F80
0E00
ENDCHAR
STARTCHAR otilde
ENCODING 245
SWIDTH 833 0
DWIDTH 12 0
BBX 11 14 0 -1
BITMAP
3FC0
6FC0
0000
1F80
39C0
7F60
E9E0
F1E0
F1E0
E9E0
7760
5EC0
3F80
0E00
ENDCHAR
STARTCHAR odieresis
ENCODING 246
SWIDTH 833 0
DWIDTH 12 0
BBX 11 14 0 -1
BITMAP
3B80
3B80
0000
1F80
39C0
7F60
E9E0
F1E0
F1E0
E9E0
7760
5EC0
3F80
0E00
ENDCHAR
STARTCHAR divide
ENCODING 247
SWIDTH 260 0
DWIDTH 4 0
BBX 4 8 0 1
BITMAP
E0
E0
E0
00
F0
00
E0
E0
ENDCHAR
STARTCHAR oslash
ENCODING 248
SWIDTH 832 0
DWIDTH 12 0
BBX 11 12 0 -1
BITMAP
0180
1EC0
39C0
7F60
E9E0
F1E0
F1E0
E9E0
7760
5EC0
3F80
7E00
ENDCHAR
STARTCHAR ugrave
ENCODING 249
SWIDTH 795 0
DWIDTH 11 0
BBX 10 15 1 -1
BITMAP
E000
7800
1C00
0000
E3C0
E3C0
E3C0
E3C0
E3C0
E3C0
D280
EF80
BE80
7F00
1C00
ENDCHAR
STARTCHAR uacute
ENCODING 250
SWIDTH 795 0
DWIDTH 11 0
BBX 10 15 1 -1
BITMAP
0380
0F00
1C00
0000
E3C0
E3C0
E3C0
E3C0
E3C0
E3C0
D280
EF80
BE80
7F00
1C00
ENDCHAR
STARTCHAR ucircumflex
ENCODING 251
SWIDTH 795 0
DWIDTH 11 0
BBX 10 15 1 -1
BITMAP
0800
1C00
1A00
2400
E3C0
E3C0
E3C0
E3C0
E3C0
E3C0
D280
EF80
BE80
7F00
1C00
ENDCHAR
STARTCHAR udieresis
ENCODING 252
SWIDTH 795 0
DWIDTH 11 0
BBX 10 14 1 -1
BITMAP
7700
7700
0000
E3C0
E3C0
E3C0
E3C0
E3C0
E3C0
D280
EF80
BE80
7F00
1C00
ENDCHAR
STARTCHAR yacute
ENCODING 253
SWIDTH 733 0
DWIDTH 10 0
BBX 10 14 0 0
BITMAP
01C0
0F80
0600
0000
F3C0
5280
7B80
2E80
3F00
1F00
1E00
0E00
0E00
0E00
ENDCHAR
STARTCHAR thorn
ENCODING 254
SWIDTH 833 0
DWIDTH 12 0
BBX 10 12 1 -1
BITMAP
E000
E000
E200
FD80
E3C0
FDC0
E3C0
FDC0
FF40
FF80
FE00
E000
ENDCHAR
STARTCHAR ydieresis
ENCODING 255
SWIDTH 733 0
DWIDTH 10 0
BBX 10 13 0 0
BITMAP
2A80
2A80
0000
F3C0
5280
7B80
2E80
3F00
1F00
1E00
0E00
0E00
0E00
ENDCHAR
STARTCHAR Amacron
ENCODING 256
SWIDTH 936 0
DWIDTH 13 0
BBX 13 11 0 0
BITMAP
0F80
0F80
1AC0
1FC0
17A0
3DE0
3DE0
7750
7FF0
5FE8
F078
ENDCHAR
STARTCHAR amacron
ENCODING 257
SWIDTH 832 0
DWIDTH 12 0
BBX 11 10 0 0
BITMAP
1F80
3F40
6FA0
DFE0
F1E0
F1E0
E9E0
7FE0
77E0
1FE0
ENDCHAR
STARTCHAR Abreve
ENCODING 258
SWIDTH 936 0
DWIDTH 13 0
BBX 13 15 0 0
BITMAP
0D80
0700
0000
0000
0F80
0F80
1AC0
1FC0
17A0
3DE0
3DE0
7750
7FF0
5FE8
F078
ENDCHAR
STARTCHAR abreve
ENCODING 259
SWIDTH 832 0
DWIDTH 12 0
BBX 11 13 0 0
BITMAP
0900
0E00
0000
1F80
3F40
6FA0
DFE0
F1E0
F1E0
E9E0
7FE0
77E0
1FE0
ENDCHAR
STARTCHAR Aogonek
ENCODING 260
SWIDTH 937 0
DWIDTH 13 0
BBX 13 15 0 -4
BITMAP
0F80
0F80
1BC0
1FC0
16A0
3DE0
3DE0
5770
7FF0
5FD0
F678
0A00
0C00
0E00
0E00
ENDCHAR
STARTCHAR aogonek
ENCODING 261
SWIDTH 832 0
DWIDTH 12 0
BBX 11 15 0 -5
BITMAP
1F80
3F40
6FA0
DFE0
F1E0
F1E0
E9E0
77E0
7FE0
17E0
0C00
1400
1800
1C00
1C00
ENDCHAR
STARTCHAR Cacute
ENCODING 262
SWIDTH 852 0
DWIDTH 12 0
BBX 12 17 0 -1
BITMAP
00E0
03C0
0700
0000
0F80
1760
3FD0
7760
D880
F000
F000
F000
58C0
6FB0
3760
1FC0
0700
ENDCHAR
STARTCHAR cacute
ENCODING 263
SWIDTH 736 0
DWIDTH 10 0
BBX 10 15 0 -1
BITMAP
00C0
0380
0600
0000
1F80
3940
7F80
E900
F000
F000
E900
7700
5EC0
3F80
0E00
ENDCHAR
STARTCHAR Cdotaccent
ENCODING 266
SWIDTH 852 0
DWIDTH 12 0
BBX 12 16 0 -1
BITMAP
0700
0700
0000
0F80
1760
3FD0
7760
D880
F000
F000
F000
58C0
6FB0
3760
1FC0
0700
ENDCHAR
STARTCHAR cdotaccent
ENCODING 267
SWIDTH 736 0
DWIDTH 10 0
BBX 10 14 0 -1
BITMAP
0600
0600
0000
1F80
3940
7F80
E900
F000
F000
E900
7700
5EC0
3F80
0E00
ENDCHAR
STARTCHAR Ccaron
ENCODING 268
SWIDTH 852 0
DWIDTH 12 0
BBX 12 17 0 -1
BITMAP
0D80
0700
0700
0000
0F80
1760
3FD0
7760
D880
F000
F000
F000
58C0
6FB0
3760
1FC0
0700
ENDCHAR
STARTCHAR ccaron
ENCODING 269
SWIDTH 736 0
DWIDTH 10 0
BBX 10 16 0 -1
BITMAP
0B00
0E00
0600
0000
0000
1F80
3940
7F80
E900
F000
F000
E900
7700
5EC0
3F80
0E00
ENDCHAR
STARTCHAR Dcaron
ENCODING 270
SWIDTH 886 0
DWIDTH 12 0
BBX 11 16 1 0
BITMAP
1D00
1600
0A00
0000
2200
DD80
A340
DDC0
E3E0
E1E0
E1E0
E1E0
E2A0
FFC0
8380
FF00
ENDCHAR
STARTCHAR dcaron
ENCODING 271
SWIDTH 1084 0
DWIDTH 15 0
BBX 14 10 1 0
BITMAP
FF1C
FE9C
BF54
DDD8
E3C0
E3C0
E3C0
FEC0
8380
FF00
ENDCHAR
STARTCHAR Dcroat
ENCODING 272
SWIDTH 888 0
DWIDTH 12 0
BBX 13 11 -1 0
BITMAP
7FE0
68D0
7770
78F8
F678
F678
F678
78A8
7FF0
60E0
7FC0
ENDCHAR
STARTCHAR dcroat
ENCODING 273
SWIDTH 833 0
DWIDTH 12 0
BBX 12 10 -1 0
BITMAP
3FC0
5FA0
6FD0
7770
F6F0
F6F0
78F0
7FB0
60E0
7FC0
ENDCHAR
STARTCHAR Emacron
ENCODING 274
SWIDTH 706 0
DWIDTH 10 0
BBX 8 11 1 0
BITMAP
FF
FF
E0
E0
DC
DC
DC
E0
FF
E0
DF
ENDCHAR
STARTCHAR emacron
ENCODING 275
SWIDTH 666 0
DWIDTH 9 0
BBX 8 10 1 0
BITMAP
DF
DF
DF
E0
FF
FF
FF
FF
E0
DF
ENDCHAR
STARTCHAR Ebreve
ENCODING 276
SWIDTH 706 0
DWIDTH 10 0
BBX 8 15 1 0
BITMAP
24
3C
00
1F
E0
FF
E0
E0
DC
DC
DC
E0
FF
E0
DF
ENDCHAR
STARTCHAR ebreve
ENCODING 277
SWIDTH 666 0
DWIDTH 9 0
BBX 8 13 1 0
BITMAP
24
38
00
DF
DF
DF
E0
FF
FF
FF
FF
E0
DF
ENDCHAR
STARTCHAR Edotaccent
ENCODING 278
SWIDTH 706 0
DWIDTH 10 0
BBX 8 15 1 0
BITMAP
18
18
18
1F
E0
FF
E0
E0
DC
DC
DC
E0
FF
E0
DF
ENDCHAR
STARTCHAR edotaccent
ENCODING 279
SWIDTH 666 0
DWIDTH 9 0
BBX 8 14 1 0
BITMAP
38
38
38
00
DF
DF
DF
E0
FF
FF
FF
FF
E0
DF
ENDCHAR
STARTCHAR Eogonek
ENCODING 280
SWIDTH 706 0
DWIDTH 10 0
BBX 8 15 1 -4
BITMAP
FF
FF
E0
E0
DC
DC
DC
E0
FF
E0
DF
03
02
03
03
ENDCHAR
STARTCHAR eogonek
ENCODING 281
SWIDTH 666 0
DWIDTH 9 0
BBX 8 14 1 -4
BITMAP
DF
DF
DF
E0
FF
FF
FF
FF
E0
DF
05
06
07
07
ENDCHAR
STARTCHAR Ecaron
ENCODING 282
SWIDTH 706 0
DWIDTH 10 0
BBX 8 16 1 0
BITMAP
3C
34
18
00
1F
E0
FF
E0
E0
DC
DC
DC
E0
FF
E0
DF
ENDCHAR
STARTCHAR ecaron
ENCODING 283
SWIDTH 666 0
DWIDTH 9 0
BBX 8 15 1 0
BITMAP
5C
34
18
00
00
DF
DF
DF
E0
FF
FF
FF
FF
E0
DF
ENDCHAR
STARTCHAR Gbreve
ENCODING 286
SWIDTH 908 0
DWIDTH 13 0
BBX 12 16 0 -1
BITMAP
0D80
0700
0000
0F80
1760
3FD0
7760
D880
F000
F0F0
F0F0
58F0
6FF0
37F0
1FF0
0700
ENDCHAR
STARTCHAR gbreve
ENCODING 287
SWIDTH 827 0
DWIDTH 12 0
BBX 11 14 0 -1
BITMAP
1900
0E00
0000
1F80
3940
7F80
E900
F000
F1E0
E9E0
77E0
5FE0
3FE0
0E00
ENDCHAR
STARTCHAR Gdotaccent
ENCODING 288
SWIDTH 908 0
DWIDTH 13 0
BBX 12 16 0 -1
BITMAP
0700
0700
0000
0F80
1760
3FD0
7760
D880
F000
F0F0
F0F0
58F0
6FF0
37F0
1FF0
0700
ENDCHAR
STARTCHAR gdotaccent
ENCODING 289
SWIDTH 827 0
DWIDTH 12 0
BBX 11 14 0 -1
BITMAP
0600
0600
0000
1F80
3940
7F80
E900
F000
F1E0
E9E0
77E0
5FE0
3FE0
0E00
ENDCHAR
STARTCHAR Gcommaaccent
ENCODING 290
SWIDTH 908 0
DWIDTH 13 0
BBX 12 17 0 -5
BITMAP
0F80
1760
3FD0
7760
D880
F000
F0F0
F0F0
58F0
6FF0
37F0
1FF0
0700
0700
0700
0300
0700
ENDCHAR
STARTCHAR gcommaaccent
ENCODING 291
SWIDTH 827 0
DWIDTH 12 0
BBX 11 11 0 -1
BITMAP
1F80
3940
7F80
E900
F000
F1E0
E9E0
77E0
5FE0
3FE0
0E00
ENDCHAR
STARTCHAR Hcircumflex
ENCODING 292
SWIDTH 901 0
DWIDTH 13 0
BBX 11 16 1 0
BITMAP
0C00
0E00
1600
0800
0000
E0E0
E0E0
E0E0
E0E0
DFE0
DFE0
DFE0
E0E0
E0E0
E0E0
E0E0
ENDCHAR
STARTCHAR hcircumflex
ENCODING 293
SWIDTH 830 0
DWIDTH 12 0
BBX 10 14 1 0
BITMAP
0C00
1C00
1E00
0000
E2C0
E2C0
E2C0
FEC0
E2C0
FEC0
E2C0
E2C0
E2C0
E2C0
ENDCHAR
STARTCHAR Hbar
ENCODING 294
SWIDTH 901 0
DWIDTH 13 0
BBX 13 11 0 0
BITMAP
F070
EF78
EF78
F070
EFF0
EFF0
EFF0
F070
F070
F070
F070
ENDCHAR
STARTCHAR hbar
ENCODING 295
SWIDTH 830 0
DWIDTH 12 0
BBX 12 10 0 0
BITMAP
F1A0
EFB0
EFB0
FFA0
F1A0
FFA0
F1A0
F1A0
F1A0
F1A0
ENDCHAR
STARTCHAR Itilde
ENCODING 296
SWIDTH 338 0
DWIDTH 5 0
BBX 9 15 -2 0
BITMAP
FD80
DF00
0000
0000
3C00
3C00
3C00
3C00
3C00
3C00
3C00
3C00
3C00
3C00
3C00
ENDCHAR
STARTCHAR itilde
ENCODING 297
SWIDTH 337 0
DWIDTH 5 0
BBX 9 13 -2 0
BITMAP
FD80
DF00
0000
3C00
3C00
3C00
3C00
3C00
3C00
3C00
3C00
3C00
3C00
ENDCHAR
STARTCHAR Imacron
ENCODING 298
SWIDTH 338 0
DWIDTH 5 0
BBX 3 11 1 0
BITMAP
E0
E0
E0
E0
E0
E0
E0
E0
E0
E0
E0
ENDCHAR
STARTCHAR imacron
ENCODING 299
SWIDTH 337 0
DWIDTH 5 0
BBX 3 10 1 0
BITMAP
E0
E0
E0
E0
E0
E0
E0
E0
E0
E0
ENDCHAR
STARTCHAR Ibreve
ENCODING 300
SWIDTH 338 0
DWIDTH 5 0
BBX 4 15 0 0
BITMAP
90
70
00
00
F0
F0
F0
F0
F0
F0
F0
F0
F0
F0
F0
ENDCHAR
STARTCHAR ibreve
ENCODING 301
SWIDTH 337 0
DWIDTH 5 0
BBX 4 13 0 0
BITMAP
90
70
00
F0
F0
F0
F0
F0
F0
F0
F0
F0
F0
ENDCHAR
STARTCHAR Iogonek
ENCODING 302
SWIDTH 338 0
DWIDTH 5 0
BBX 3 15 1 -4
BITMAP
E0
E0
E0
E0
E0
E0
E0
E0
E0
E0
E0
60
C0
E0
E0
ENDCHAR
STARTCHAR iogonek
ENCODING 303
SWIDTH 337 0
DWIDTH 5 0
BBX 3 14 1 -4
BITMAP
E0
E0
E0
E0
E0
E0
E0
E0
E0
E0
60
C0
E0
E0
ENDCHAR
STARTCHAR Idotaccent
ENCODING 304
SWIDTH 338 0
DWIDTH 5 0
BBX 3 15 1 0
BITMAP
E0
E0
00
00
E0
E0
E0
E0
E0
E0
E0
E0
E0
E0
E0
ENDCHAR
STARTCHAR dotlessi
ENCODING 305
SWIDTH 337 0
DWIDTH 5 0
BBX 3 10 1 0
BITMAP
E0
E0
E0
E0
E0
E0
E0
E0
E0
E0
ENDCHAR
STARTCHAR IJ
ENCODING 306
SWIDTH 774 0
DWIDTH 11 0
BBX 9 12 1 -1
BITMAP
E380
E380
E380
E380
E380
E380
E380
E780
EB80
EE80
EF00
0C00
ENDCHAR
STARTCHAR ij
ENCODING 307
SWIDTH 729 0
DWIDTH 10 0
BBX 9 11 1 -1
BITMAP
E780
E780
E780
E780
E780
E780
E780
E780
ED00
EB00
0E00
ENDCHAR
STARTCHAR Jcircumflex
ENCODING 308
SWIDTH 434 0
DWIDTH 6 0
BBX 6 17 0 -1
BITMAP
18
38
34
08
00
34
34
34
34
34
34
34
28
F8
F8
D0
E0
ENDCHAR
STARTCHAR jcircumflex
ENCODING 309
SWIDTH 393 0
DWIDTH 6 0
BBX 5 15 0 -1
BITMAP
30
28
78
00
78
78
78
78
78
78
78
78
F8
B0
E0
ENDCHAR
STARTCHAR Kcommaaccent
ENCODING 310
SWIDTH 815 0
DWIDTH 11 0
BBX 10 16 1 -5
BITMAP
E3C0
E780
E580
EF00
EB00
DD00
EF00
EE80
E780
E740
E3C0
0000
1C00
1C00
0C00
0C00
ENDCHAR
STARTCHAR kcommaaccent
ENCODING 311
SWIDTH 801 0
DWIDTH 11 0
BBX 10 15 1 -5
BITMAP
E3C0
E780
E580
EF00
F500
FA00
EF00
EA80
E780
E3C0
0000
1C00
1C00
0C00
0C00
ENDCHAR
STARTCHAR kgreenlandic
ENCODING 312
SWIDTH 801 0
DWIDTH 11 0
BBX 10 10 1 0
BITMAP
E3C0
E780
E580
EF00
F500
FA00
EF00
EA80
E780
E3C0
ENDCHAR
STARTCHAR Lacute
ENCODING 313
SWIDTH 604 0
DWIDTH 8 0
BBX 8 16 1 0
BITMAP
07
1E
38
00
00
E0
E0
E0
E0
E0
E0
E0
E0
FE
E0
DE
ENDCHAR
STARTCHAR lacute
ENCODING 314
SWIDTH 583 0
DWIDTH 8 0
BBX 7 14 1 0
BITMAP
1C
78
E0
00
E0
E0
E0
E0
E0
E0
E0
FE
E0
DE
ENDCHAR
STARTCHAR Lcommaaccent
ENCODING 315
SWIDTH 604 0
DWIDTH 8 0
BBX 7 16 1 -5
BITMAP
E0
E0
E0
E0
E0
E0
E0
E0
FE
E0
DE
00
38
38
18
30
ENDCHAR
STARTCHAR lcommaaccent
ENCODING 316
SWIDTH 583 0
DWIDTH 8 0
BBX 7 15 1 -5
BITMAP
E0
E0
E0
E0
E0
E0
E0
FE
E0
DE
00
28
28
10
30
ENDCHAR
STARTCHAR Lcaron
ENCODING 317
SWIDTH 856 0
DWIDTH 12 0
BBX 11 11 1 0
BITMAP
E0E0
E0E0
E0A0
E0C0
E000
E000
E000
E000
FE00
E000
DE00
ENDCHAR
STARTCHAR lcaron
ENCODING 318
SWIDTH 584 0
DWIDTH 8 0
BBX 7 10 1 0
BITMAP
EE
EE
EA
EC
E0
E0
E0
FE
E0
DE
ENDCHAR
STARTCHAR Ldot
ENCODING 319
SWIDTH 604 0
DWIDTH 8 0
BBX 7 11 1 0
BITMAP
E0
E0
E0
E0
EC
EC
EC
E0
FE
E0
DE
ENDCHAR
STARTCHAR ldot
ENCODING 320
SWIDTH 582 0
DWIDTH 8 0
BBX 7 10 1 0
BITMAP
E0
E0
EC
EC
EC
E0
E0
FE
E0
DE
ENDCHAR
STARTCHAR Lslash
ENCODING 321
SWIDTH 604 0
DWIDTH 8 0
BBX 9 11 -1 0
BITMAP
7800
7800
7E00
7A00
FE00
F800
F800
7800
7F80
7800
7780
ENDCHAR
STARTCHAR lslash
ENCODING 322
SWIDTH 581 0
DWIDTH 8 0
BBX 9 10 -1 0
BITMAP
7800
7800
7600
7600
F600
F800
F800
7F80
7800
7780
ENDCHAR
STARTCHAR Nacute
ENCODING 323
SWIDTH 877 0
DWIDTH 12 0
BBX 11 16 1 0
BITMAP
01C0
0F80
0600
0000
0000
F1E0
B9E0
F5E0
BDE0
EBE0
DEE0
EFE0
ED60
E7E0
E5E0
E3A0
ENDCHAR
STARTCHAR nacute
ENCODING 324
SWIDTH 787 0
DWIDTH 11 0
BBX 9 14 1 0
BITMAP
0380
0F00
1C00
0000
F180
D180
F980
D580
BD80
D680
DD80
CF80
CD80
C780
ENDCHAR
STARTCHAR Ncommaaccent
ENCODING 325
SWIDTH 877 0
DWIDTH 12 0
BBX 11 16 1 -5
BITMAP
F1E0
B9E0
F5E0
BDE0
EBE0
DEE0
EFE0
ED60
E7E0
E5E0
E3A0
0000
0A00
0A00
0400
0C00
ENDCHAR
STARTCHAR ncommaaccent
ENCODING 326
SWIDTH 787 0
DWIDTH 11 0
BBX 9 15 1 -5
BITMAP
F180
D180
F980
D580
BD80
D680
DD80
CF80
CD80
C780
0000
1C00
1C00
0C00
1C00
ENDCHAR
STARTCHAR Ncaron
ENCODING 327
SWIDTH 877 0
DWIDTH 12 0
BBX 11 16 1 0
BITMAP
1E00
1600
0A00
0400
0000
F1E0
B9E0
F5E0
BDE0
EBE0
DEE0
EFE0
ED60
E7E0
E5E0
E3A0
ENDCHAR
STARTCHAR ncaron
ENCODING 328
SWIDTH 787 0
DWIDTH 11 0
BBX 9 15 1 0
BITMAP
3600
1C00
1C00
0000
0000
F180
D180
F980
D580
BD80
D680
DD80
CF80
CD80
C780
ENDCHAR
STARTCHAR Eng
ENCODING 330
SWIDTH 874 0
DWIDTH 12 0
BBX 11 15 1 -4
BITMAP
F1E0
B9E0
EDE0
BDE0
EFE0
DDE0
EFE0
EBE0
E7E0
E3E0
E3E0
01E0
07A0
06C0
0780
ENDCHAR
STARTCHAR eng
ENCODING 331
SWIDTH 691 0
DWIDTH 10 0
BBX 8 14 1 -4
BITMAP
F7
D7
FF
D7
BF
D7
DF
CF
CF
C7
07
0F
0E
0C
ENDCHAR
STARTCHAR Omacron
ENCODING 332
SWIDTH 933 0
DWIDTH 13 0
BBX 13 13 0 -1
BITMAP
0F80
1760
3FD0
7770
D8A8
F078
F078
F078
58E8
6FB0
3760
1FC0
0700
ENDCHAR
STARTCHAR omacron
ENCODING 333
SWIDTH 833 0
DWIDTH 12 0
BBX 11 11 0 -1
BITMAP
1F80
39C0
7F60
E9E0
F1E0
F1E0
E9E0
7760
5EC0
3F80
0E00
ENDCHAR
STARTCHAR Obreve
ENCODING 334
SWIDTH 933 0
DWIDTH 13 0
BBX 13 16 0 -1
BITMAP
0D80
0700
0000
0F80
1760
3FD0
7770
D8A8
F078
F078
F078
58E8
6FB0
3760
1FC0
0700
ENDCHAR
STARTCHAR obreve
ENCODING 335
SWIDTH 833 0
DWIDTH 12 0
BBX 11 14 0 -1
BITMAP
1900
0E00
0000
1F80
39C0
7F60
E9E0
F1E0
F1E0
E9E0
7760
5EC0
3F80
0E00
ENDCHAR
STARTCHAR Ohungarumlaut
ENCODING 336
SWIDTH 933 0
DWIDTH 13 0
BBX 14 17 0 -1
BITMAP
07BC
1BD8
0C60
0000
0F80
1760
3FD0
7770
D8A8
F078
F078
F078
58E8
6FB0
3760
1FC0
0700
ENDCHAR
STARTCHAR ohungarumlaut
ENCODING 337
SWIDTH 833 0
DWIDTH 12 0
BBX 13 15 0 -1
BITMAP
0738
1EF0
39C0
0000
1F80
39C0
7F60
E9E0
F1E0
F1E0
E9E0
7760
5EC0
3F80
0E00
ENDCHAR
STARTCHAR OE
ENCODING 338
SWIDTH 1317 0
DWIDTH 18 0
BBX 18 13 0 -1
BITMAP
0F87C0
177800
3FFFC0
777800
D8B800
F07E00
F07E00
F07E00
58F800
6FBFC0
377800
1FFFC0
070000
ENDCHAR
STARTCHAR oe
ENCODING 339
SWIDTH 1174 0
DWIDTH 16 0
BBX 16 11 0 -1
BITMAP
1FDF
39DF
7FDF
E9E0
F1FF
F1FF
E9FF
77FF
5EE0
3FFF
0E00
ENDCHAR
STARTCHAR Racute
ENCODING 340
SWIDTH 843 0
DWIDTH 12 0
BBX 10 16 1 0
BITMAP
0F00
3600
1800
0000
2000
DF80
A140
DFC0
E140
DEC0
DFC0
DF80
DF80
E780
E780
E3C0
ENDCHAR
STARTCHAR Rcommaaccent
ENCODING 342
SWIDTH 843 0
DWIDTH 12 0
BBX 10 16 1 -5
BITMAP
FF80
A140
DFC0
E140
DEC0
DFC0
DF80
DF80
E780
E780
E3C0
0000
1C00
1C00
0C00
1C00
ENDCHAR
STARTCHAR rcommaaccent
ENCODING 343
SWIDTH 831 0
DWIDTH 12 0
BBX 10 15 1 -5
BITMAP
FF00
FF80
BEC0
DFC0
DFC0
DEC0
DF80
DF00
E780
E780
0000
1C00
1C00
0C00
1C00
ENDCHAR
STARTCHAR Rcaron
ENCODING 344
SWIDTH 843 0
DWIDTH 12 0
BBX 10 16 1 0
BITMAP
7800
6800
3000
0000
2000
DF80
A140
DFC0
E140
DEC0
DFC0
DF80
DF80
E780
E780
E3C0
ENDCHAR
STARTCHAR rcaron
ENCODING 345
SWIDTH 831 0
DWIDTH 12 0
BBX 10 15 1 0
BITMAP
1E00
1A00
0C00
0000
0000
FF00
FF80
BEC0
DFC0
DFC0
DEC0
DF80
DF00
E780
E780
ENDCHAR
STARTCHAR Sacute
ENCODING 346
SWIDTH 682 0
DWIDTH 10 0
BBX 9 17 0 -1
BITMAP
0180
0700
0C00
0000
3F00
5E80
7F80
EE00
F400
DB00
7780
3B80
0780
3B80
DE80
7F00
1C00
ENDCHAR
STARTCHAR sacute
ENCODING 347
SWIDTH 683 0
DWIDTH 10 0
BBX 9 14 0 0
BITMAP
0180
0700
0C00
0000
3F00
7F80
DF00
E000
BF00
7E80
1F80
3780
EA80
7F00
ENDCHAR
STARTCHAR Scircumflex
ENCODING 348
SWIDTH 682 0
DWIDTH 10 0
BBX 9 17 0 -1
BITMAP
0C00
1C00
1A00
0400
3F00
5E80
7F80
EE00
F400
DB00
7780
3B80
0780
3B80
DE80
7F00
1C00
ENDCHAR
STARTCHAR scircumflex
ENCODING 349
SWIDTH 683 0
DWIDTH 10 0
BBX 9 14 0 0
BITMAP
0C00
1C00
1A00
0400
3F00
7F80
DF00
E000
BF00
7E80
1F80
3780
EA80
7F00
ENDCHAR
STARTCHAR Scedilla
ENCODING 350
SWIDTH 682 0
DWIDTH 10 0
BBX 9 17 0 -5
BITMAP
3F00
5E80
7F80
EE00
F400
DB00
7780
3B80
0780
3B80
DE80
7F00
1C00
1C00
3C00
3000
3C00
ENDCHAR
STARTCHAR scedilla
ENCODING 351
SWIDTH 683 0
DWIDTH 10 0
BBX 9 14 0 -4
BITMAP
3F00
7F80
DF00
E000
BF00
7E80
1F80
2380
FE80
6B00
1C00
3C00
3000
3C00
ENDCHAR
STARTCHAR Scaron
ENCODING 352
SWIDTH 682 0
DWIDTH 10 0
BBX 9 17 0 -1
BITMAP
1E00
1400
0C00
0000
3F00
5E80
7F80
EE00
F400
DB00
7780
3B80
0780
3B80
DE80
7F00
1C00
ENDCHAR
STARTCHAR scaron
ENCODING 353
SWIDTH 683 0
DWIDTH 10 0
BBX 9 15 0 0
BITMAP
1E00
1400
0C00
0000
0000
3F00
7F80
DF00
E000
BF00
7E80
1F80
3780
EA80
7F00
ENDCHAR
STARTCHAR Tcommaaccent
ENCODING 354
SWIDTH 591 0
DWIDTH 8 0
BBX 8 15 0 -4
BITMAP
FF
C3
3C
3C
3C
3C
3C
3C
3C
3C
3C
38
58
60
38
ENDCHAR
STARTCHAR tcommaaccent
ENCODING 355
SWIDTH 588 0
DWIDTH 8 0
BBX 8 14 0 -4
BITMAP
FF
FF
FF
3C
3C
3C
3C
3C
3C
3C
38
58
60
38
ENDCHAR
STARTCHAR Tcaron
ENCODING 356
SWIDTH 591 0
DWIDTH 8 0
BBX 8 16 0 0
BITMAP
3C
2C
14
08
C3
3C
C3
3C
3C
3C
3C
3C
3C
3C
3C
3C
ENDCHAR
STARTCHAR tcaron
ENCODING 357
SWIDTH 842 0
DWIDTH 12 0
BBX 11 10 0 0
BITMAP
FF60
FF60
FF60
3C60
3C00
3C00
3C00
3C00
3C00
3C00
ENDCHAR
STARTCHAR Tbar
ENCODING 358
SWIDTH 591 0
DWIDTH 8 0
BBX 8 11 0 0
BITMAP
FF
C3
3C
3C
FF
FF
FF
3C
3C
3C
3C
ENDCHAR
STARTCHAR tbar
ENCODING 359
SWIDTH 588 0
DWIDTH 8 0
BBX 8 10 0 0
BITMAP
FF
FF
FF
3C
3C
FF
FF
FF
3C
3C
ENDCHAR
STARTCHAR Utilde
ENCODING 360
SWIDTH 905 0
DWIDTH 13 0
BBX 11 16 1 -1
BITMAP
7E80
6F80
0000
0000
E1E0
E1E0
E1E0
E1E0
E1E0
E1E0
E1E0
B1E0
DFA0
6F40
3F80
0E00
ENDCHAR
STARTCHAR utilde
ENCODING 361
SWIDTH 795 0
DWIDTH 11 0
BBX 10 14 1 -1
BITMAP
7D80
DF00
0000
E3C0
E3C0
E3C0
E3C0
E3C0
E3C0
D280
EF80
BE80
7F00
1C00
ENDCHAR
STARTCHAR Umacron
ENCODING 362
SWIDTH 905 0
DWIDTH 13 0
BBX 11 12 1 -1
BITMAP
E1E0
E1E0
E1E0
E1E0
E1E0
E1E0
E1E0
B1E0
DFA0
6F40
3F80
0E00
ENDCHAR
STARTCHAR umacron
ENCODING 363
SWIDTH 795 0
DWIDTH 11 0
BBX 10 11 1 -1
BITMAP
E3C0
E3C0
E3C0
E3C0
E3C0
E3C0
D280
EF80
BE80
7F00
1C00
ENDCHAR
STARTCHAR Ubreve
ENCODING 364
SWIDTH 905 0
DWIDTH 13 0
BBX 11 16 1 -1
BITMAP
1200
0E00
0000
0000
E1E0
E1E0
E1E0
E1E0
E1E0
E1E0
E1E0
B1E0
DFA0
6F40
3F80
0E00
ENDCHAR
STARTCHAR ubreve
ENCODING 365
SWIDTH 795 0
DWIDTH 11 0
BBX 10 14 1 -1
BITMAP
3600
1C00
0000
E3C0
E3C0
E3C0
E3C0
E3C0
E3C0
D280
EF80
BE80
7F00
1C00
ENDCHAR
STARTCHAR Uring
ENCODING 366
SWIDTH 905 0
DWIDTH 13 0
BBX 11 18 1 -1
BITMAP
0C00
1600
1A00
0E00
0000
0000
E1E0
E1E0
E1E0
E1E0
E1E0
E1E0
E1E0
B1E0
DFA0
6F40
3F80
0E00
ENDCHAR
STARTCHAR uring
ENCODING 367
SWIDTH 795 0
DWIDTH 11 0
BBX 10 16 1 -1
BITMAP
0800
1C00
1400
1C00
0000
E3C0
E3C0
E3C0
E3C0
E3C0
E3C0
D280
EF80
BE80
7F00
1C00
ENDCHAR
STARTCHAR Uhungarumlaut
ENCODING 368
SWIDTH 905 0
DWIDTH 13 0
BBX 12 17 1 -1
BITMAP
0630
1CE0
3180
0000
0000
E1E0
E1E0
E1E0
E1E0
E1E0
E1E0
E1E0
B1E0
DFA0
6F40
3F80
0E00
ENDCHAR
STARTCHAR uhungarumlaut
ENCODING 369
SWIDTH 795 0
DWIDTH 11 0
BBX 12 15 1 -1
BITMAP
1EF0
6F60
3180
0000
E3C0
E3C0
E3C0
E3C0
E3C0
E3C0
D280
EF80
BE80
7F00
1C00
ENDCHAR
STARTCHAR Uogonek
ENCODING 370
SWIDTH 905 0
DWIDTH 13 0
BBX 11 15 1 -4
BITMAP
E1E0
E1E0
E1E0
E1E0
E1E0
E1E0
E1E0
B1E0
DFA0
7F40
2F80
1E00
1800
1C00
1C00
ENDCHAR
STARTCHAR uogonek
ENCODING 371
SWIDTH 794 0
DWIDTH 11 0
BBX 10 14 1 -4
BITMAP
E3C0
E3C0
E3C0
E3C0
E3C0
E3C0
D280
EF80
BE80
5F00
3C00
3000
3800
3800
ENDCHAR
STARTCHAR Ycircumflex
ENCODING 374
SWIDTH 789 0
DWIDTH 11 0
BBX 11 16 0 0
BITMAP
0A00
0E00
0E00
1100
0000
F1E0
7BC0
7B40
3E80
3780
1F00
1F00
0A00
0A00
0A00
0A00
ENDCHAR
STARTCHAR ycircumflex
ENCODING 375
SWIDTH 733 0
DWIDTH 10 0
BBX 10 14 0 0
BITMAP
0C00
0A00
1E00
0000
F3C0
5280
7B80
2E80
3F00
1F00
1E00
0E00
0E00
0E00
ENDCHAR
STARTCHAR Ydieresis
ENCODING 376
SWIDTH 789 0
DWIDTH 11 0
BBX 11 14 0 0
BITMAP
3B80
3B80
0000
F1E0
7BC0
7B40
3E80
3780
1F00
1F00
0A00
0A00
0A00
0A00
ENDCHAR
STARTCHAR Zacute
ENCODING 377
SWIDTH 854 0
DWIDTH 12 0
BBX 10 16 1 0
BITMAP
03C0
0D80
0600
0000
0D80
F240
0DC0
F2C0
0FC0
1780
7D00
BE00
E800
FFC0
D000
FFC0
ENDCHAR
STARTCHAR zacute
ENCODING 378
SWIDTH 714 0
DWIDTH 10 0
BBX 10 14 0 0
BITMAP
03C0
0D80
0600
0000
7FC0
7F80
7D80
0F00
1D00
2E00
3C00
6F80
7800
FF80
ENDCHAR
STARTCHAR Zdotaccent
ENCODING 379
SWIDTH 854 0
DWIDTH 12 0
BBX 10 15 1 0
BITMAP
0C00
0C00
0000
0D80
F240
0DC0
F2C0
0FC0
1780
7D00
BE00
E800
FFC0
D000
FFC0
ENDCHAR
STARTCHAR zdotaccent
ENCODING 380
SWIDTH 714 0
DWIDTH 10 0
BBX 10 13 0 0
BITMAP
0C00
0C00
0000
7FC0
7F80
7D80
0F00
1D00
2E00
3C00
6F80
7800
FF80
ENDCHAR
STARTCHAR Zcaron
ENCODING 381
SWIDTH 854 0
DWIDTH 12 0
BBX 10 16 1 0
BITMAP
1E00
1A00
0C00
0000
0D80
F240
0DC0
F2C0
0FC0
1780
7D00
BE00
E800
FFC0
D000
FFC0
ENDCHAR
STARTCHAR zcaron
ENCODING 382
SWIDTH 714 0
DWIDTH 10 0
BBX 10 15 0 0
BITMAP
1E00
1600
0C00
0000
0000
7FC0
7F80
7D80
0F00
1D00
2E00
3C00
6F80
7800
FF80
ENDCHAR
STARTCHAR florin
ENCODING 402
SWIDTH 388 0
DWIDTH 5 0
BBX 5 13 0 -1
BITMAP
18
38
68
70
F8
F8
F8
70
70
70
70
D0
E0
ENDCHAR
STARTCHAR uni01C4
ENCODING 452
SWIDTH 1740 0
DWIDTH 24 0
BBX 23 16 1 0
BITMAP
0001B0
0000E0
0000E0
000000
220048
DD8FB6
A3404A
DDCFBE
E3E056
E1E1FC
E1E2F0
E1EFA0
E2B7C0
FFCDFE
838E00
FF0FFE
ENDCHAR
STARTCHAR uni01C5
ENCODING 453
SWIDTH 1601 0
DWIDTH 22 0
BBX 21 15 1 0
BITMAP
000360
0001C0
0001C0
220000
DD8000
A34FF8
DDCFB8
E3EF70
E1E1A0
E1E2E0
E1E3C0
E2A6C0
FFC7F8
838E80
FF1FF8
ENDCHAR
STARTCHAR Scommaaccent
ENCODING 536
SWIDTH 682 0
DWIDTH 10 0
BBX 9 17 0 -5
BITMAP
3F00
5E80
7F80
EE00
F400
DB00
7780
3B80
0780
3B80
DE80
7F00
1C00
1C00
1C00
0C00
1C00
ENDCHAR
STARTCHAR scommaaccent
ENCODING 537
SWIDTH 683 0
DWIDTH 10 0
BBX 9 15 0 -5
BITMAP
3F00
7F80
DF00
E000
BF00
7E80
1F80
3780
EA80
7F00
0000
1C00
1C00
0C00
1C00
ENDCHAR
STARTCHAR uni021A
ENCODING 538
SWIDTH 591 0
DWIDTH 8 0
BBX 8 16 0 -5
BITMAP
FF
C3
3C
3C
3C
3C
3C
3C
3C
3C
3C
00
14
14
08
18
ENDCHAR
STARTCHAR uni021B
ENCODING 539
SWIDTH 588 0
DWIDTH 8 0
BBX 8 15 0 -5
BITMAP
FF
FF
FF
3C
3C
3C
3C
3C
3C
3C
00
14
14
08
18
ENDCHAR
STARTCHAR uni0237
ENCODING 567
SWIDTH 393 0
DWIDTH 6 0
BBX 5 11 0 -1
BITMAP
78
78
78
78
78
78
78
78
F8
B0
E0
ENDCHAR
STARTCHAR circumflex
ENCODING 710
SWIDTH 376 0
DWIDTH 5 0
BBX 4 3 1 11
BITMAP
60
E0
B0
ENDCHAR
STARTCHAR caron
ENCODING 711
SWIDTH 362 0
DWIDTH 5 0
BBX 5 3 0 11
BITMAP
D8
70
70
ENDCHAR
STARTCHAR breve
ENCODING 728
SWIDTH 360 0
DWIDTH 5 0
BBX 5 2 0 11
BITMAP
D8
70
ENDCHAR
STARTCHAR dotaccent
ENCODING 729
SWIDTH 255 0
DWIDTH 4 0
BBX 2 2 1 9
BITMAP
C0
C0
ENDCHAR
STARTCHAR ring
ENCODING 730
SWIDTH 330 0
DWIDTH 5 0
BBX 4 4 0 11
BITMAP
60
B0
D0
70
ENDCHAR
STARTCHAR ogonek
ENCODING 731
SWIDTH 250 0
DWIDTH 4 0
BBX 3 5 0 -4
BITMAP
20
60
C0
E0
E0
ENDCHAR
STARTCHAR tilde
ENCODING 732
SWIDTH 665 0
DWIDTH 9 0
BBX 9 2 0 8
BITMAP
7D80
DF00
ENDCHAR
STARTCHAR hungarumlaut
ENCODING 733
SWIDTH 837 0
DWIDTH 12 0
BBX 11 3 0 10
BITMAP
1C60
F9C0
6300
ENDCHAR
STARTCHAR uni0307
ENCODING 775
SWIDTH 260 0
DWIDTH 4 0
BBX 2 3 1 5
BITMAP
C0
C0
C0
ENDCHAR
STARTCHAR uni030F
ENCODING 783
SWIDTH 554 0
DWIDTH 8 0
BBX 7 5 0 10
BITMAP
CC
6C
64
26
36
ENDCHAR
STARTCHAR uni0311
ENCODING 785
SWIDTH 375 0
DWIDTH 5 0
BBX 4 2 1 11
BITMAP
60
B0
ENDCHAR
STARTCHAR uni0326
ENCODING 806
SWIDTH 274 0
DWIDTH 4 0
BBX 2 4 1 -5
BITMAP
C0
C0
C0
C0
ENDCHAR
STARTCHAR Omega
ENCODING 937
SWIDTH 92 0
DWIDTH 1 0
BBX 1 1 0 0
BITMAP
00
ENDCHAR
STARTCHAR uni00B5.dup2
ENCODING 956
SWIDTH 802 0
DWIDTH 11 0
BBX 10 11 1 -1
BITMAP
E3C0
E3C0
E3C0
E3C0
E3C0
E3C0
E3C0
FF40
FE80
FF00
FC00
ENDCHAR
STARTCHAR pi
ENCODING 960
SWIDTH 92 0
DWIDTH 1 0
BBX 1 1 0 0
BITMAP
00
ENDCHAR
STARTCHAR endash
ENCODING 8211
SWIDTH 473 0
DWIDTH 7 0
BBX 5 3 1 4
BITMAP
F8
F8
F8
ENDCHAR
STARTCHAR emdash
ENCODING 8212
SWIDTH 615 0
DWIDTH 9 0
BBX 7 3 1 4
BITMAP
FE
FE
FE
ENDCHAR
STARTCHAR quoteleft
ENCODING 8216
SWIDTH 254 0
DWIDTH 4 0
BBX 2 4 1 7
BITMAP
C0
80
C0
C0
ENDCHAR
STARTCHAR quoteright
ENCODING 8217
SWIDTH 251 0
DWIDTH 4 0
BBX 2 4 1 7
BITMAP
C0
C0
C0
C0
ENDCHAR
STARTCHAR quotesinglbase
ENCODING 8218
SWIDTH 252 0
DWIDTH 4 0
BBX 2 4 1 -2
BITMAP
C0
C0
C0
80
ENDCHAR
STARTCHAR quotedblleft
ENCODING 8220
SWIDTH 535 0
DWIDTH 8 0
BBX 6 4 1 7
BITMAP
CC
98
DC
DC
ENDCHAR
STARTCHAR quotedblright
ENCODING 8221
SWIDTH 532 0
DWIDTH 7 0
BBX 6 4 1 7
BITMAP
DC
DC
CC
D8
ENDCHAR
STARTCHAR quotedblbase
ENCODING 8222
SWIDTH 533 0
DWIDTH 7 0
BBX 6 4 1 -2
BITMAP
DC
DC
DC
98
ENDCHAR
STARTCHAR dagger
ENCODING 8224
SWIDTH 636 0
DWIDTH 9 0
BBX 8 11 0 0
BITMAP
14
14
F7
F7
F7
14
14
14
14
14
14
ENDCHAR
STARTCHAR daggerdbl
ENCODING 8225
SWIDTH 648 0
DWIDTH 9 0
BBX 8 11 1 0
BITMAP
28
28
EF
EF
EF
28
D7
D7
D7
28
28
ENDCHAR
STARTCHAR bullet
ENCODING 8226
SWIDTH 501 0
DWIDTH 7 0
BBX 7 6 0 2
BITMAP
38
7C
C6
C6
6C
38
ENDCHAR
STARTCHAR ellipsis
ENCODING 8230
SWIDTH 676 0
DWIDTH 9 0
BBX 8 2 1 0
BITMAP
FF
FF
ENDCHAR
STARTCHAR perthousand
ENCODING 8240
SWIDTH 447 0
DWIDTH 6 0
BBX 6 12 0 -1
BITMAP
1C
1C
34
38
38
38
68
70
70
70
D0
E0
ENDCHAR
STARTCHAR guilsinglleft
ENCODING 8249
SWIDTH 465 0
DWIDTH 7 0
BBX 5 7 1 2
BITMAP
08
38
F8
F0
D8
F0
38
ENDCHAR
STARTCHAR guilsinglright
ENCODING 8250
SWIDTH 465 0
DWIDTH 7 0
BBX 5 7 1 2
BITMAP
80
E0
58
F8
98
F0
C0
ENDCHAR
STARTCHAR fraction
ENCODING 8260
SWIDTH 447 0
DWIDTH 6 0
BBX 6 12 0 -1
BITMAP
1C
1C
34
38
38
38
68
70
70
70
D0
E0
ENDCHAR
STARTCHAR uni2074
ENCODING 8308
SWIDTH 528 0
DWIDTH 7 0
BBX 7 9 0 2
BITMAP
3C
38
70
74
D4
2A
FE
FE
04
ENDCHAR
STARTCHAR Euro
ENCODING 8364
SWIDTH 781 0
DWIDTH 11 0
BBX 11 13 0 -1
BITMAP
07E0
0BC0
1FC0
3BC0
6C00
FF00
7800
FF00
5C00
37C0
1B80
0FE0
03C0
ENDCHAR
STARTCHAR trademark
ENCODING 8482
SWIDTH 1503 0
DWIDTH 21 0
BBX 20 8 0 3
BITMAP
FF7070
EB58B0
1478F0
145D50
145DD0
145750
145EB0
145730
ENDCHAR
STARTCHAR partialdiff
ENCODING 8706
SWIDTH 108 0
DWIDTH 2 0
BBX 1 1 0 0
BITMAP
00
ENDCHAR
STARTCHAR uni2206
ENCODING 8710
SWIDTH 108 0
DWIDTH 2 0
BBX 1 1 0 0
BITMAP
00
ENDCHAR
STARTCHAR product
ENCODING 8719
SWIDTH 521 0
DWIDTH 7 0
BBX 7 10 0 0
BITMAP
38
2C
7C
7A
EE
EE
74
7C
54
38
ENDCHAR
STARTCHAR summation
ENCODING 8721
SWIDTH 108 0
DWIDTH 2 0
BBX 1 1 0 0
BITMAP
00
ENDCHAR
STARTCHAR minus
ENCODING 8722
SWIDTH 555 0
DWIDTH 8 0
BBX 6 2 1 5
BITMAP
FC
FC
ENDCHAR
STARTCHAR radical
ENCODING 8730
SWIDTH 108 0
DWIDTH 2 0
BBX 1 1 0 0
BITMAP
00
ENDCHAR
STARTCHAR infinity
ENCODING 8734
SWIDTH 108 0
DWIDTH 2 0
BBX 1 1 0 0
BITMAP
00
ENDCHAR
STARTCHAR integral
ENCODING 8747
SWIDTH 362 0
DWIDTH 5 0
BBX 5 13 0 -1
BITMAP
18
38
78
70
70
70
70
70
70
70
70
D0
E0
ENDCHAR
STARTCHAR approxequal
ENCODING 8776
SWIDTH 665 0
DWIDTH 9 0
BBX 9 6 0 4
BITMAP
7D80
DF00
0000
1C00
6180
DF00
ENDCHAR
STARTCHAR notequal
ENCODING 8800
SWIDTH 473 0
DWIDTH 7 0
BBX 6 12 0 -1
BITMAP
1C
1C
74
38
7C
38
6C
70
7C
70
D0
E0
ENDCHAR
STARTCHAR lessequal
ENCODING 8804
SWIDTH 108 0
DWIDTH 2 0
BBX 1 1 0 0
BITMAP
00
ENDCHAR
STARTCHAR greaterequal
ENCODING 8805
SWIDTH 108 0
DWIDTH 2 0
BBX 1 1 0 0
BITMAP
00
ENDCHAR
STARTCHAR lozenge
ENCODING 9674
SWIDTH 521 0
DWIDTH 7 0
BBX 7 10 0 0
BITMAP
38
2C
7C
7A
EE
EE
74
7C
54
38
ENDCHAR
STARTCHAR uniF8FF
ENCODING 63743
SWIDTH 108 0
DWIDTH 2 0
BBX 1 1 0 0
BITMAP
00
ENDCHAR
STARTCHAR uniFB01
ENCODING 64257
SWIDTH 962 0
DWIDTH 13 0
BBX 12 10 1 0
BITMAP
DEF0
DEF0
DEF0
E0F0
DEF0
DEF0
DEF0
E0F0
E0F0
E0F0
ENDCHAR
STARTCHAR uniFB02
ENCODING 64258
SWIDTH 1208 0
DWIDTH 17 0
BBX 15 10 1 0
BITMAP
DEF0
DEF0
DEF0
E0F0
DEF0
DEF0
DEF0
E0FE
E0F0
E0FE
ENDCHAR
STARTCHAR .notdef
ENCODING -1
SWIDTH 108 0
DWIDTH 2 0
BBX 1 1 0 0
BITMAP
00
ENDCHAR
ENDFONT
